0.16m3min_grf.mot
version=1
nRows=27
nColumns 19
inDegrees=yes
endheader
time	1_ground_force_vx	1_ground_force_vy	1_ground_force_vz	1_ground_force_px	1_ground_force_py	1_ground_force_pz	1_ground_torque_x	1_ground_torque_y	1_ground_torque_z	2_ground_force_vx	2_ground_force_vy	2_ground_force_vz	2_ground_force_px	2_ground_force_py	2_ground_force_pz	2_ground_torque_x	2_ground_torque_y	2_ground_torque_z
            3.751500	          -16.303679	         1397.356980	         -106.226448	           -0.188211	            0.006384	           -0.440937	           -0.040559	            3.476230	           -0.264261	           30.316607	         1261.412550	          143.957686	           -0.218347	            0.005749	           -0.712617	            0.003511	            0.146071	            0.016670
            3.752000	          -16.579960	         1406.549659	         -106.002921	           -0.188210	            0.006384	           -0.440928	           -0.054859	            4.653962	           -0.350740	           28.975483	         1269.511161	          143.799443	           -0.218318	            0.005749	           -0.712605	           -0.012001	           -0.525785	           -0.059556
            3.752500	          -17.999987	         1413.575708	         -105.006278	           -0.188265	            0.006385	           -0.441125	           -0.066378	            5.212807	           -0.387229	           26.794349	         1276.685932	          143.544431	           -0.218214	            0.005748	           -0.712418	           -0.012600	           -0.600351	           -0.067501
            3.753000	          -19.786235	         1421.501622	         -103.729717	           -0.188266	            0.006385	           -0.441161	           -0.067285	            4.833931	           -0.352741	           25.641832	         1284.417822	          143.103209	           -0.218130	            0.005748	           -0.712219	           -0.003248	           -0.162697	           -0.018127
            3.753500	          -21.665914	         1429.610886	         -103.139998	           -0.188274	            0.006385	           -0.441108	           -0.059540	            3.928683	           -0.283437	           25.428266	         1291.600946	          142.565777	           -0.218019	            0.005748	           -0.712146	            0.003857	            0.195908	            0.021624
            3.754000	          -22.539321	         1437.724276	         -103.469900	           -0.188279	            0.006385	           -0.441137	           -0.054584	            3.481779	           -0.250576	           26.104262	         1298.970938	          142.216336	           -0.217986	            0.005748	           -0.711956	            0.000948	            0.047192	            0.005167
            3.754500	          -23.047806	         1444.579325	         -104.631538	           -0.188266	            0.006386	           -0.441322	           -0.061806	            3.873876	           -0.280587	           26.356803	         1306.890141	          142.291406	           -0.217982	            0.005748	           -0.712000	           -0.010930	           -0.541939	           -0.059005
            3.755000	          -23.326343	         1451.793634	         -105.471187	           -0.188299	            0.006385	           -0.441249	           -0.079147	            4.925998	           -0.357868	           25.725660	         1312.966107	          141.937923	           -0.217772	            0.005748	           -0.711764	           -0.029215	           -1.491045	           -0.161189
            3.755500	          -23.740960	         1459.185779	         -105.713614	           -0.188270	            0.006386	           -0.441368	           -0.096496	            5.930927	           -0.429678	           24.249947	         1319.406929	          141.726890	           -0.217645	            0.005747	           -0.711584	           -0.037017	           -2.014036	           -0.216342
            3.756000	          -24.152343	         1465.671013	         -104.721794	           -0.188132	            0.006386	           -0.441482	           -0.104355	            6.332701	           -0.452470	           22.395827	         1326.769384	          140.862323	           -0.217612	            0.005747	           -0.711509	           -0.034400	           -2.037898	           -0.216362
            3.756500	          -25.433455	         1471.973742	         -103.224165	           -0.188290	            0.006387	           -0.441698	           -0.101848	            5.894528	           -0.413362	           20.688717	         1332.292323	          139.568764	           -0.217487	            0.005747	           -0.711231	           -0.023897	           -1.538907	           -0.161213
            3.757000	          -26.577186	         1479.718426	         -101.674827	           -0.188306	            0.006387	           -0.441547	           -0.093730	            5.218548	           -0.358578	           19.868512	         1338.738694	          138.465826	           -0.217441	            0.005747	           -0.711128	           -0.018361	           -1.237138	           -0.127957
            3.757500	          -27.722152	         1485.482971	         -100.775997	           -0.188303	            0.006387	           -0.441669	           -0.092342	            4.948120	           -0.335683	           20.171604	         1345.555687	          137.879925	           -0.217442	            0.005746	           -0.711027	           -0.022440	           -1.496898	           -0.153388
            3.758000	          -28.137422	         1493.957435	         -101.197195	           -0.188269	            0.006386	           -0.441536	           -0.103369	            5.488358	           -0.371769	           20.569099	         1352.188360	          137.387198	           -0.217290	            0.005746	           -0.710917	           -0.034910	           -2.294957	           -0.233176
            3.758500	          -28.278118	         1498.828483	         -102.093102	           -0.188252	            0.006388	           -0.441785	           -0.124445	            6.595996	           -0.449288	           20.360870	         1357.898191	          136.891446	           -0.217118	            0.005747	           -0.710796	           -0.049049	           -3.271163	           -0.329770
            3.759000	          -28.509050	         1503.877376	         -102.391885	           -0.188196	            0.006388	           -0.441940	           -0.140758	            7.425083	           -0.505539	           19.449044	         1363.791070	          135.974288	           -0.217067	            0.005746	           -0.710519	           -0.053919	           -3.780900	           -0.376968
            3.759500	          -29.151140	         1509.824552	         -102.043789	           -0.188109	            0.006388	           -0.441972	           -0.148623	            7.697620	           -0.520255	           17.504298	         1370.234309	          134.543307	           -0.216878	            0.005746	           -0.710530	           -0.046451	           -3.636185	           -0.357037
            3.760000	          -30.248977	         1515.406769	         -100.641427	           -0.188164	            0.006389	           -0.442145	           -0.143242	            7.176125	           -0.476582	           15.936910	         1375.943419	          132.874937	           -0.216893	            0.005746	           -0.710310	           -0.037005	           -3.194940	           -0.308536
            3.760500	          -31.895548	         1521.526846	          -98.639243	           -0.188197	            0.006390	           -0.442245	           -0.135957	            6.485634	           -0.420458	           14.889083	         1380.547582	          131.718592	           -0.216715	            0.005745	           -0.710091	           -0.032167	           -2.982603	           -0.284571
            3.761000	          -33.268787	         1527.109599	          -97.373754	           -0.188224	            0.006390	           -0.442303	           -0.140349	            6.442346	           -0.410786	           14.073427	         1385.705743	          130.376421	           -0.216596	            0.005745	           -0.709902	           -0.032943	           -3.243618	           -0.305181
            3.761500	          -34.231659	         1533.056516	          -96.979010	           -0.188124	            0.006390	           -0.442315	           -0.161018	            7.211171	           -0.456169	           14.245170	         1389.944730	          129.546748	           -0.216413	            0.005745	           -0.709680	           -0.042144	           -4.112093	           -0.383259
            3.762000	          -34.921516	         1538.286281	          -97.459306	           -0.188055	            0.006390	           -0.442430	           -0.188134	            8.287248	           -0.525045	           14.594261	         1396.947478	          128.539138	           -0.216378	            0.005745	           -0.709720	           -0.053534	           -5.124262	           -0.471505
            3.762500	          -35.611755	         1543.156240	          -98.124572	           -0.188025	            0.006391	           -0.442541	           -0.208514	            9.035493	           -0.574539	           13.736430	         1400.816257	          127.239308	           -0.216251	            0.005745	           -0.709434	           -0.054426	           -5.550310	           -0.504147
            3.763000	          -36.988582	         1549.105680	          -98.279074	           -0.187972	            0.006391	           -0.442570	           -0.215413	            9.021629	           -0.572354	           12.311625	         1405.973056	          125.662749	           -0.216115	            0.005745	           -0.709402	           -0.046661	           -5.328652	           -0.476263
            3.763500	          -38.499022	         1554.147003	          -96.923844	           -0.188083	            0.006391	           -0.442682	           -0.209889	            8.472895	           -0.528409	           10.470446	         1409.655542	          123.987255	           -0.216069	            0.005744	           -0.709119	           -0.036193	           -4.872742	           -0.428586
            3.764000	          -40.285235	         1560.631429	          -95.745185	           -0.188009	            0.006391	           -0.442579	           -0.206063	            7.982787	           -0.489746	            8.814653	         1413.891112	          122.266717	           -0.215935	            0.005744	           -0.708889	           -0.029085	           -4.665227	           -0.403427
            3.764500	          -42.391196	         1565.131280	          -94.253239	           -0.187920	            0.006391	           -0.442693	           -0.221212	            8.167403	           -0.491846	            7.767531	         1418.310860	          121.203587	           -0.215777	            0.005744	           -0.708682	           -0.028013	           -5.115057	           -0.437114
